<?xml version="1.0" standalone="no"?>
<!DOCTYPE svg PUBLIC "-//W3C//DTD SVG 20010904//EN"
 "http://www.w3.org/TR/2001/REC-SVG-20010904/DTD/svg10.dtd">
<svg version="1.0" xmlns="http://www.w3.org/2000/svg"
 width="1500.000000pt" height="1000.000000pt" viewBox="0 0 1500.000000 1000.000000"
 preserveAspectRatio="xMidYMid meet">

<g transform="translate(0.000000,1000.000000) scale(0.100000,-0.100000)"
fill="#000000" stroke="none">
<path d="M528 9970 c2 -16 6 -30 8 -30 2 0 4 14 4 30 0 17 -4 30 -8 30 -5 0
-7 -13 -4 -30z"/>
<path d="M10739 8609 c-11 -21 -10 -22 22 -15 40 8 48 14 29 26 -24 15 -38 12
-51 -11z"/>
<path d="M10560 8585 c-7 -8 -10 -18 -7 -21 11 -11 59 6 54 19 -6 18 -32 20
-47 2z"/>
<path d="M10374 8559 c-3 -6 -2 -14 2 -19 12 -11 57 7 49 20 -8 13 -42 13 -51
-1z"/>
<path d="M10760 8556 l-35 -10 29 -4 c16 -2 33 1 39 7 16 16 5 19 -33 7z"/>
<path d="M10550 8520 c0 -5 11 -10 24 -10 14 0 28 5 31 10 4 6 -7 10 -24 10
-17 0 -31 -4 -31 -10z"/>
<path d="M10370 8490 c0 -13 30 -13 50 0 11 7 7 10 -17 10 -18 0 -33 -4 -33
-10z"/>
<path d="M14145 8266 c-22 -7 -44 -14 -50 -15 -5 -2 -20 -7 -33 -12 -13 -5
-28 -9 -33 -9 -6 0 -40 -18 -76 -40 -37 -22 -73 -40 -81 -40 -12 0 -90 -40
-110 -55 -2 -2 6 -19 18 -39 11 -20 20 -39 20 -41 0 -8 -59 -35 -77 -35 -45 0
-81 -107 -43 -130 27 -17 112 -22 248 -15 264 13 302 24 302 86 0 14 7 46 16
70 20 54 20 269 1 281 -17 11 -56 9 -102 -6z"/>
<path d="M12720 8219 c-18 -7 -21 -12 -11 -18 10 -7 10 -9 -2 -14 -10 -4 -13
-13 -10 -26 5 -18 13 -21 63 -21 31 0 83 -9 116 -20 103 -34 260 -22 212 18
-47 37 -166 74 -246 76 -37 1 -74 4 -82 8 -8 4 -26 2 -40 -3z"/>
<path d="M250 7910 c-13 -9 -13 -11 0 -20 19 -13 70 -13 70 0 0 9 -32 30 -47
30 -4 0 -15 -5 -23 -10z"/>
<path d="M470 7890 c-13 -9 -13 -11 0 -20 15 -9 80 -14 80 -6 0 3 -7 12 -16
20 -18 18 -42 20 -64 6z"/>
<path d="M680 7866 c0 -12 11 -16 41 -16 52 0 48 24 -4 28 -28 2 -37 -1 -37
-12z"/>
<path d="M230 7823 c0 -18 25 -33 55 -33 33 0 63 15 52 26 -11 11 -107 18
-107 7z"/>
<path d="M474 7795 c11 -8 29 -15 41 -15 12 0 30 7 41 15 17 13 14 14 -41 14
-55 0 -58 -1 -41 -14z"/>
<path d="M680 7785 c13 -15 56 -20 84 -9 33 13 14 24 -40 24 -49 0 -55 -2 -44
-15z"/>
<path d="M12954 6788 c17 -26 8 -47 -14 -33 -5 3 -10 2 -10 -4 0 -5 5 -13 10
-16 6 -3 10 -11 10 -16 0 -6 -5 -7 -11 -3 -6 3 -15 1 -19 -5 -5 -9 -19 1 -44
30 -37 44 -48 46 -20 4 14 -21 14 -26 -1 -54 -9 -18 -11 -31 -5 -31 17 0 11
-26 -11 -55 -12 -15 -23 -37 -25 -48 -1 -12 -5 -31 -9 -42 -5 -14 -4 -16 3 -7
5 8 11 13 13 11 12 -7 49 29 49 48 0 12 5 25 11 29 12 7 8 -20 -8 -62 -4 -11
-3 -15 5 -11 6 4 13 21 17 37 9 39 41 59 50 30 3 -11 11 -20 16 -20 6 0 7 -9
4 -20 -9 -27 13 -26 23 1 7 18 10 19 20 6 10 -11 9 -17 -2 -26 -8 -7 -12 -19
-9 -27 7 -19 -17 -104 -28 -101 -5 1 -32 -47 -59 -108 -27 -60 -50 -101 -50
-91 0 30 -14 9 -15 -22 0 -15 -4 -25 -8 -22 -5 3 -14 -4 -20 -15 -12 -21 -37
-32 -37 -16 0 5 6 11 14 14 8 3 31 39 51 79 20 40 33 64 29 53 -18 -55 -12
-53 16 5 17 36 34 79 36 95 5 28 4 27 -18 -11 -49 -88 -101 -129 -60 -47 26
52 34 90 21 98 -6 4 -17 -1 -24 -11 -20 -26 -18 -14 4 37 11 24 17 47 14 52
-6 10 -45 -32 -71 -76 -21 -36 -38 -29 -34 14 l3 34 -24 -28 c-20 -24 -27 -27
-50 -18 -25 10 -29 7 -66 -42 -21 -29 -54 -65 -72 -82 -32 -28 -31 -27 4 10
40 44 47 61 20 50 -13 -4 -10 2 8 22 58 63 69 77 69 89 0 7 12 22 26 33 14 11
27 27 28 35 1 8 8 22 16 32 11 14 7 12 -17 -5 -36 -25 -42 -34 -16 -24 11 4
14 3 9 -5 -4 -7 -13 -12 -20 -12 -7 0 -40 -25 -72 -55 -118 -109 -73 -41 55
84 47 46 51 51 22 35 -18 -10 -48 -32 -65 -47 -74 -68 -75 -64 -1 9 82 81 67
78 -42 -9 -34 -27 -65 -49 -70 -49 -4 0 -14 -4 -20 -10 -29 -24 -10 10 30 51
23 25 32 37 20 27 -12 -10 -27 -15 -33 -11 -6 4 -20 -1 -30 -10 -10 -9 -23
-14 -28 -11 -6 3 -21 -4 -33 -15 l-24 -21 30 17 30 16 -23 -20 c-12 -11 -31
-18 -42 -16 -10 2 -24 -3 -31 -11 -6 -8 -18 -14 -26 -14 -8 0 -11 -5 -7 -12 4
-7 3 -8 -4 -4 -6 4 -56 -39 -118 -101 -59 -59 -103 -102 -99 -94 5 10 4 12 -4
7 -6 -4 -9 -11 -7 -15 7 -11 -99 -113 -108 -104 -4 5 -6 1 -4 -7 2 -8 -2 -14
-9 -15 -6 0 -15 -4 -20 -9 -5 -6 -2 -6 7 -1 9 5 12 5 7 -1 -5 -5 -12 -9 -17
-9 -4 0 -26 -17 -49 -37 -48 -45 -67 -51 -26 -8 26 27 26 35 1 31 -5 -1 -4 5
3 13 7 9 18 13 23 10 12 -8 77 54 74 70 -2 6 -1 7 2 3 5 -10 72 52 72 66 0 4
-4 6 -8 3 -5 -3 -9 1 -9 9 0 11 4 12 14 4 10 -9 34 9 105 76 51 48 117 106
146 128 28 21 52 46 52 54 0 16 40 53 104 95 58 39 29 35 -50 -7 -36 -19 -70
-33 -75 -29 -5 3 -17 0 -26 -6 -15 -9 -14 -10 7 -5 20 5 18 2 -10 -15 -46 -28
-321 -309 -314 -321 3 -5 1 -8 -4 -7 -6 2 -42 -30 -81 -69 -39 -40 -75 -73
-80 -73 -9 0 -26 -39 -19 -44 1 -1 14 -10 27 -19 l24 -16 -26 -12 c-36 -16
-43 -40 -18 -61 25 -19 26 -31 5 -52 -14 -14 -12 -15 18 -10 18 3 29 2 23 -3
-20 -16 -17 -36 5 -30 17 4 20 2 15 -14 -4 -11 -2 -19 5 -19 6 0 8 -4 5 -10
-3 -5 -1 -10 5 -10 6 0 8 -5 4 -11 -5 -8 3 -10 24 -7 17 2 29 1 27 -3 -3 -4
11 -10 30 -13 19 -4 35 -11 35 -16 0 -6 9 -10 20 -10 11 0 20 -4 20 -10 0 -5
9 -10 21 -10 11 0 18 -4 15 -9 -3 -5 -1 -23 5 -41 9 -24 16 -30 31 -27 14 4
18 1 14 -9 -3 -8 -1 -14 5 -14 6 0 8 -4 5 -9 -9 -14 59 -52 94 -53 22 -1 28
-4 20 -12 -19 -19 -10 -26 15 -10 14 9 25 14 25 10 0 -7 83 35 91 47 3 5 8 7
10 5 2 -1 20 9 39 24 19 15 48 31 63 37 75 29 169 -2 214 -70 25 -37 28 -52
28 -118 0 -42 -6 -95 -13 -118 -22 -75 -150 -203 -203 -203 -22 0 -29 -5 -29
-20 0 -14 -5 -18 -17 -13 -16 6 -16 5 0 -17 24 -34 21 -77 -9 -133 -16 -31
-23 -56 -19 -70 4 -15 3 -18 -3 -9 -7 11 -12 11 -25 -2 -8 -9 -22 -16 -29 -16
-8 0 -35 -20 -61 -45 -45 -43 -58 -65 -37 -65 6 0 10 -7 10 -15 0 -8 5 -15 10
-15 6 0 10 4 10 8 0 5 15 7 32 6 35 -3 101 39 106 66 1 8 21 54 43 101 25 54
43 110 48 150 5 35 9 59 10 52 1 -14 28 -7 53 15 10 8 26 16 35 17 35 3 73 17
73 26 0 6 8 6 18 0 12 -6 23 -6 28 -1 11 11 56 1 49 -11 -11 -17 7 -60 22 -55
9 4 13 1 11 -6 -3 -7 -10 -13 -16 -13 -7 0 -12 -3 -12 -7 0 -5 0 -11 0 -14 0
-4 6 -2 13 4 18 16 37 0 42 -34 2 -23 -4 -36 -33 -62 -36 -32 -36 -33 -10 -28
15 2 61 14 103 25 41 12 88 21 104 21 l29 0 6 83 c3 45 8 152 11 238 3 86 10
182 16 215 8 42 8 94 -1 187 -6 71 -8 132 -5 135 3 3 6 -10 6 -29 l2 -34 7 35
7 35 2 -34 c3 -75 11 -17 15 100 2 68 0 107 -4 86 -4 -20 -9 -40 -12 -43 -9
-8 4 89 13 108 14 26 11 43 -4 30 -10 -8 -12 -2 -10 31 2 34 1 38 -7 22 -9
-18 -10 -17 -5 5 12 52 24 189 27 312 l3 127 -39 35 c-43 40 -60 44 -76 19
-10 -16 -11 -16 -4 2 3 11 9 30 11 42 3 12 11 28 19 34 8 6 14 17 14 24 0 19
-49 55 -74 55 -12 0 -28 6 -35 13 -8 6 -6 0 3 -15z m-95 -198 c-33 -58 -42
-49 -10 10 14 27 27 45 29 40 2 -5 -7 -28 -19 -50z m-359 -53 c0 -2 -12 -14
-27 -28 l-28 -24 24 28 c23 25 31 32 31 24z m461 -174 c-12 -20 -14 -14 -5 12
4 9 9 14 11 11 3 -2 0 -13 -6 -23z m-431 -47 c0 -2 -8 -10 -17 -17 -16 -13
-17 -12 -4 4 13 16 21 21 21 13z m-440 -9 c0 -2 -9 -12 -21 -23 -15 -14 -20
-15 -17 -4 2 8 10 18 18 22 19 8 20 9 20 5z m389 -83 c-18 -20 -70 -68 -114
-106 -58 -52 -50 -42 30 35 109 105 151 140 84 71z m-389 -27 c0 -2 -12 -14
-27 -28 l-28 -24 24 28 c23 25 31 32 31 24z m-140 -30 c0 -2 -10 -12 -22 -23
l-23 -19 19 23 c18 21 26 27 26 19z m340 -67 c-69 -64 -145 -123 -105 -83 33
34 159 143 165 143 3 0 -24 -27 -60 -60z m-110 -14 c0 -2 -8 -10 -17 -17 -16
-13 -17 -12 -4 4 13 16 21 21 21 13z m915 -85 c-4 -39 -10 -71 -14 -71 -4 0
-4 26 0 58 4 31 8 66 8 76 1 11 4 17 7 13 3 -3 3 -38 -1 -76z m-372 42 c-5
-12 -3 -14 8 -8 11 7 10 3 -2 -15 -9 -14 -21 -25 -27 -25 -6 0 -14 -4 -19 -9
-5 -5 -2 -6 6 -1 25 14 7 -14 -49 -78 -60 -68 -234 -230 -253 -235 -7 -2 21
27 62 65 117 107 231 224 231 235 0 6 -7 4 -17 -3 -9 -8 1 10 22 39 42 56 48
61 38 35z m-484 -36 c-78 -70 -139 -119 -133 -105 5 12 164 147 174 147 3 0
-16 -18 -41 -42z m211 -72 c-18 -19 -35 -33 -38 -31 -4 4 59 65 67 66 3 0 -10
-16 -29 -35z m19 -25 c-22 -22 -43 -40 -47 -40 -3 0 12 18 33 40 21 22 42 40
47 40 4 0 -11 -18 -33 -40z m644 0 c3 -11 1 -18 -4 -14 -5 3 -9 12 -9 20 0 20
7 17 13 -6z m-26 -52 c-2 -13 -4 -3 -4 22 0 25 2 35 4 23 2 -13 2 -33 0 -45z
m-807 48 c0 -2 -8 -10 -17 -17 -16 -13 -17 -12 -4 4 13 16 21 21 21 13z m89
-43 c-18 -15 -35 -27 -38 -26 -3 1 -13 -4 -21 -10 -11 -8 -12 -8 -5 0 16 18
90 71 94 67 2 -2 -11 -16 -30 -31z m106 7 c-10 -11 -22 -20 -28 -20 -5 0 1 9
14 20 31 25 37 25 14 0z m-85 -34 c0 -2 -8 -10 -17 -17 -16 -13 -17 -12 -4 4
13 16 21 21 21 13z m100 -36 c0 -5 -5 -10 -11 -10 -5 0 -7 5 -4 10 3 6 8 10
11 10 2 0 4 -4 4 -10z m-55 -39 c-3 -6 -25 -23 -48 -38 -88 -60 -91 -56 -6 7
54 41 64 47 54 31z m225 -74 c0 -15 -3 -18 -9 -9 -8 13 -31 13 -41 0 -3 -4
-12 -3 -20 3 -19 12 -3 23 39 26 26 2 31 -1 31 -20z m-250 -902 c-29 -34 -34
-2 -6 34 9 12 12 11 14 -3 2 -9 -2 -23 -8 -31z m10 -18 c0 -2 -9 -12 -20 -22
-17 -16 -20 -16 -20 -2 0 8 8 18 18 20 9 3 18 5 20 6 1 0 2 -1 2 -2z"/>
<path d="M12725 6677 c-21 -19 -32 -34 -24 -33 8 0 30 15 49 33 45 43 25 43
-25 0z"/>
<path d="M12779 6644 c-25 -26 -29 -34 -14 -29 18 6 18 5 -2 -13 -13 -11 -23
-24 -23 -28 0 -4 11 3 25 16 14 13 25 29 25 37 0 7 4 13 9 13 5 0 11 9 14 20
3 11 4 20 3 20 -1 0 -18 -16 -37 -36z"/>
<path d="M12235 6610 c-16 -7 -17 -9 -3 -9 9 -1 20 4 23 9 7 11 7 11 -20 0z"/>
<path d="M12585 6595 c-39 -32 -28 -32 15 0 19 14 30 25 24 25 -5 0 -22 -11
-39 -25z"/>
<path d="M12126 6545 c-45 -24 -109 -75 -94 -75 4 0 43 22 85 50 83 53 88 67
9 25z"/>
<path d="M12035 6524 c-11 -8 -42 -26 -70 -40 -58 -30 -166 -104 -214 -148
-35 -32 -34 -19 3 23 l21 24 -25 -13 -25 -13 19 22 c19 21 19 21 -12 21 -18 0
-32 -5 -32 -11 0 -5 -16 -17 -35 -24 -19 -8 -43 -25 -55 -37 -24 -26 -26 -18
-4 25 l15 32 -30 -33 c-17 -18 -31 -29 -31 -25 0 5 -7 -1 -15 -11 -8 -11 -15
-17 -15 -13 0 13 39 85 50 92 5 3 15 15 21 27 8 16 1 12 -32 -13 -24 -19 -54
-46 -67 -61 -27 -32 -48 -36 -56 -10 -3 9 -4 5 -2 -10 2 -16 -1 -28 -7 -28 -5
0 -3 -8 4 -17 10 -11 10 -14 2 -9 -8 4 -13 1 -13 -9 0 -9 4 -14 9 -11 5 4 7
-2 5 -11 -5 -23 15 -54 23 -35 6 14 59 16 68 2 3 -6 17 -7 31 -4 14 4 31 1 41
-7 13 -11 17 -12 21 -1 3 10 8 8 19 -5 13 -17 14 -16 8 7 -7 25 -6 25 17 -4
24 -28 24 -28 57 -12 17 9 40 14 51 11 13 -4 32 9 71 54 49 56 79 80 79 63 0
-4 -23 -31 -50 -61 -65 -70 -69 -109 -6 -60 37 29 33 6 -5 -25 -17 -14 -29
-31 -27 -37 2 -7 47 35 99 92 52 57 139 147 192 199 136 132 131 147 -12 42
-24 -17 -49 -32 -55 -32 -6 0 -23 -12 -37 -27 -54 -58 -80 -76 -90 -66 -8 8
-4 16 13 27 72 52 214 159 223 168 18 18 -27 -8 -85 -51 -30 -22 -72 -53 -93
-68 -22 -15 -54 -45 -73 -65 -36 -40 -50 -48 -40 -22 3 9 2 12 -5 9 -5 -4 -7
-16 -3 -27 5 -17 3 -20 -12 -14 -10 4 -15 4 -11 0 10 -11 -33 -64 -61 -75 -18
-7 -28 -6 -34 3 -7 10 -11 10 -21 -2 -6 -8 -23 -16 -37 -18 -22 -2 -21 0 13
24 30 20 41 23 53 14 11 -10 19 -9 39 4 31 20 32 26 3 19 -19 -5 -17 1 17 37
l40 43 -50 -34 -50 -33 29 34 c32 39 66 61 81 53 5 -4 7 -3 3 2 -11 12 12 36
26 28 6 -4 4 2 -4 12 -9 11 -10 16 -2 11 6 -4 12 -3 12 3 0 5 28 27 63 49 34
22 68 47 76 56 17 20 12 20 -14 0z"/>
<path d="M11845 6464 c-19 -15 -22 -21 -9 -15 18 9 52 41 43 41 -2 0 -17 -12
-34 -26z"/>
<path d="M11995 6460 c-3 -5 -2 -10 4 -10 5 0 13 5 16 10 3 6 2 10 -4 10 -5 0
-13 -4 -16 -10z"/>
<path d="M12962 6440 c0 -14 2 -19 5 -12 2 6 2 18 0 25 -3 6 -5 1 -5 -13z"/>
<path d="M12881 6436 c-8 -10 -8 -16 1 -24 10 -8 13 -4 13 14 0 28 1 28 -14
10z"/>
<path d="M8008 6413 c6 -2 18 -2 25 0 6 3 1 5 -13 5 -14 0 -19 -2 -12 -5z"/>
<path d="M7920 6400 c-12 -8 -10 -10 10 -9 14 0 34 4 45 9 17 7 16 9 -10 9
-16 0 -37 -4 -45 -9z"/>
<path d="M12590 6369 c0 -5 5 -7 10 -4 6 3 10 8 10 11 0 2 -4 4 -10 4 -5 0
-10 -5 -10 -11z"/>
<path d="M14987 6270 c-4 -41 -20 -120 -34 -175 -36 -138 -36 -150 2 -150 29
0 30 2 38 60 4 33 6 123 5 200 -3 133 -3 136 -11 65z"/>
<path d="M6963 6096 c-410 -60 -719 -109 -728 -116 -22 -18 -21 -172 0 -190
13 -11 43 -9 163 9 238 35 734 108 1054 155 164 24 305 49 313 56 12 10 15 31
13 99 l-3 86 -50 2 c-27 1 -371 -45 -762 -101z"/>
<path d="M13341 6144 c0 -11 3 -14 6 -6 3 7 2 16 -1 19 -3 4 -6 -2 -5 -13z"/>
<path d="M6005 6140 c-34 -9 -18 -13 40 -10 22 1 44 6 50 11 11 11 -46 10 -90
-1z"/>
<path d="M11815 6140 c-3 -5 -1 -10 4 -10 6 0 11 5 11 10 0 6 -2 10 -4 10 -3
0 -8 -4 -11 -10z"/>
<path d="M13239 5758 c-3 -10 -8 -45 -18 -123 -7 -49 -14 -91 -16 -93 -2 -2 1
-15 6 -29 6 -15 6 -30 0 -37 -13 -17 -15 -189 -1 -181 6 3 8 10 6 14 -3 4 0
13 5 21 8 11 9 3 5 -26 -5 -32 -2 -43 9 -48 13 -4 14 2 9 37 -4 23 -11 47 -15
53 -5 6 -7 13 -5 15 10 10 31 399 22 399 -3 0 -6 -1 -7 -2z"/>
<path d="M7612 5724 c-54 -37 -68 -119 -27 -159 50 -51 143 -16 164 61 11 40
6 60 -22 92 -24 26 -81 30 -115 6z"/>
<path d="M7333 5692 c-30 -4 -83 -58 -85 -85 -3 -49 4 -73 28 -94 84 -75 214
60 144 149 -20 26 -48 36 -87 30z"/>
<path d="M7003 5639 c-17 -5 -42 -24 -55 -41 -53 -75 -9 -166 75 -155 105 14
142 155 51 193 -19 8 -35 14 -36 13 -2 0 -17 -5 -35 -10z"/>
<path d="M11495 5625 c-34 -8 -49 -16 -47 -26 5 -19 24 -30 42 -24 26 8 82 8
180 1 87 -7 93 -6 76 8 -11 9 -28 16 -39 16 -10 0 -28 5 -40 12 -44 24 -109
29 -172 13z"/>
<path d="M6674 5586 c-108 -47 -96 -196 17 -196 33 0 47 6 76 35 31 31 34 39
31 82 -3 41 -7 50 -37 70 -39 26 -45 27 -87 9z"/>
<path d="M12480 5572 l-24 -19 25 -48 c28 -57 55 -78 69 -55 7 11 0 23 -27 46
-23 20 -33 36 -28 43 5 9 10 10 18 2 19 -19 28 -12 25 16 -4 34 -27 40 -58 15z"/>
<path d="M12655 5505 c30 -61 32 -117 5 -170 -25 -49 -25 -53 0 -30 41 37 38
174 -6 223 l-24 27 25 -50z"/>
<path d="M6311 5515 c-80 -68 -49 -180 51 -180 33 0 46 7 74 38 27 29 34 45
34 77 0 84 -92 121 -159 65z"/>
<path d="M13412 5515 c0 -16 2 -22 5 -12 2 9 2 23 0 30 -3 6 -5 -1 -5 -18z"/>
<path d="M11560 5485 c0 -18 -8 -28 -27 -36 l-27 -10 48 -24 c27 -14 52 -22
57 -19 5 3 9 -4 9 -14 0 -21 23 -46 33 -36 3 3 14 1 24 -5 17 -8 25 -3 54 31
35 42 51 102 25 92 -7 -3 -48 7 -91 21 -97 31 -105 31 -105 0z"/>
<path d="M12420 5460 c0 -5 5 -10 10 -10 6 0 10 5 10 10 0 6 -4 10 -10 10 -5
0 -10 -4 -10 -10z"/>
<path d="M13462 5440 c0 -19 2 -27 5 -17 2 9 2 25 0 35 -3 9 -5 1 -5 -18z"/>
<path d="M12445 5412 c-3 -13 0 -39 6 -57 10 -27 10 -37 0 -49 -20 -24 -5 -36
31 -25 38 11 60 29 35 29 -16 0 -15 3 3 28 12 16 37 35 56 42 19 8 34 18 34
22 0 13 -40 25 -102 30 -53 4 -57 3 -63 -20z"/>
<path d="M13472 5375 c0 -16 2 -22 5 -12 2 9 2 23 0 30 -3 6 -5 -1 -5 -18z"/>
<path d="M12410 5175 c0 -19 4 -35 9 -35 13 0 23 34 15 54 -11 28 -24 18 -24
-19z"/>
<path d="M11600 5159 c-10 -17 -8 -23 7 -35 11 -8 13 -13 5 -14 -10 0 -10 -5
-1 -21 10 -19 13 -20 26 -6 13 12 13 21 3 51 -15 45 -26 52 -40 25z"/>
<path d="M12501 5154 c0 -11 3 -14 6 -6 3 7 2 16 -1 19 -3 4 -6 -2 -5 -13z"/>
<path d="M13236 5144 c-4 -14 -5 -28 -3 -31 3 -2 8 8 11 23 4 14 5 28 3 31 -3
2 -8 -8 -11 -23z"/>
<path d="M13226 5038 c-4 -24 -3 -45 4 -52 7 -7 10 6 10 42 0 29 -2 52 -4 52
-2 0 -6 -19 -10 -42z"/>
<path d="M13313 5030 c0 -25 2 -35 4 -22 2 12 2 32 0 45 -2 12 -4 2 -4 -23z"/>
<path d="M11630 4992 c0 -4 11 -19 24 -32 19 -17 24 -29 20 -49 -4 -18 1 -35
14 -51 19 -23 20 -23 45 -7 15 9 33 17 42 17 24 0 10 16 -55 60 -32 21 -65 47
-74 55 -9 9 -16 12 -16 7z"/>
<path d="M13262 4965 c0 -16 2 -22 5 -12 2 9 2 23 0 30 -3 6 -5 -1 -5 -18z"/>
<path d="M12770 4920 c-20 -12 -5 -24 16 -12 9 5 12 12 7 15 -5 3 -15 2 -23
-3z"/>
<path d="M12663 4879 c-36 -24 -11 -23 47 1 44 18 44 18 13 18 -18 -1 -45 -9
-60 -19z"/>
<path d="M13253 4865 c0 -22 2 -30 4 -17 2 12 2 30 0 40 -3 9 -5 -1 -4 -23z"/>
<path d="M13374 4798 c3 -24 10 -98 16 -165 6 -68 15 -133 20 -145 8 -18 9
-11 5 27 -3 28 -7 86 -10 130 -3 44 -8 103 -12 130 -4 28 -6 53 -5 58 1 4 -3
7 -9 7 -8 0 -10 -14 -5 -42z"/>
<path d="M13337 4656 c-3 -8 -2 -27 3 -43 7 -25 8 -23 7 15 -1 46 -2 49 -10
28z"/>
<path d="M11475 4458 c-7 -20 22 -93 36 -93 21 0 34 50 21 80 -12 26 -49 35
-57 13z"/>
<path d="M13665 4433 c4 -10 8 -34 10 -54 1 -20 9 -50 18 -68 8 -17 12 -31 7
-31 -4 0 1 -24 12 -52 33 -86 98 -268 119 -338 33 -106 37 -123 42 -177 3 -24
9 -49 16 -56 6 -8 8 -16 5 -20 -3 -3 4 -15 15 -26 11 -11 23 -32 27 -46 8 -33
20 -32 30 3 l7 27 7 -30 c6 -25 8 -26 9 -7 2 44 20 11 27 -49 11 -102 29 -51
28 84 0 71 -4 91 -18 105 -18 16 -18 16 -12 -8 4 -14 9 -41 11 -60 3 -21 -1
-13 -10 20 -9 30 -20 64 -25 75 -5 11 -18 43 -29 70 -34 86 -87 202 -104 229
-9 14 -17 27 -17 30 0 3 -20 47 -45 100 -24 52 -47 106 -51 121 -3 14 -15 30
-27 36 -14 8 -16 13 -8 19 9 5 5 22 -14 63 -14 32 -28 57 -31 57 -4 0 -3 -8 1
-17z"/>
<path d="M13551 4370 c-1 -29 28 -110 40 -110 5 0 9 -12 9 -27 0 -16 12 -53
26 -83 35 -74 84 -201 76 -196 -4 3 -29 50 -57 105 -49 99 -65 118 -65 83 0
-42 112 -238 130 -227 5 3 16 -21 25 -52 19 -71 46 -123 61 -123 20 0 1 81
-44 180 -13 30 -25 60 -27 65 -4 19 -17 50 -45 110 -15 33 -38 85 -50 115 -13
30 -27 59 -32 65 -4 5 -8 17 -8 26 0 9 -6 22 -14 29 -8 6 -17 24 -19 38 -4 26
-4 26 -6 2z"/>
<path d="M11785 4360 c-11 -18 58 -101 71 -87 11 10 -5 56 -26 77 -22 22 -36
25 -45 10z"/>
<path d="M13311 4345 c1 -19 18 -51 18 -35 0 8 -4 22 -9 30 -5 8 -9 11 -9 5z"/>
<path d="M11370 4317 c0 -16 58 -87 71 -87 16 0 10 20 -17 55 -27 36 -54 52
-54 32z"/>
<path d="M13343 4310 c1 -11 5 -20 9 -20 11 0 10 28 -1 35 -6 3 -9 -4 -8 -15z"/>
<path d="M11962 4260 c0 -14 2 -19 5 -12 2 6 2 18 0 25 -3 6 -5 1 -5 -13z"/>
<path d="M13526 4235 c4 -8 8 -15 10 -15 2 0 4 7 4 15 0 8 -4 15 -10 15 -5 0
-7 -7 -4 -15z"/>
<path d="M13397 4169 c4 -13 8 -18 11 -10 2 7 -1 18 -6 23 -8 8 -9 4 -5 -13z"/>
<path d="M13671 4156 c7 -15 15 -23 17 -16 3 7 -3 19 -13 28 -15 16 -16 15 -4
-12z"/>
<path d="M13437 4069 c4 -13 8 -18 11 -10 2 7 -1 18 -6 23 -8 8 -9 4 -5 -13z"/>
<path d="M13560 4061 c0 -6 4 -13 10 -16 6 -3 7 1 4 9 -7 18 -14 21 -14 7z"/>
<path d="M11240 4041 c0 -6 0 -14 0 -18 0 -5 6 -8 13 -8 6 0 19 -16 28 -35 15
-33 14 -35 -8 -55 -26 -23 -39 -85 -17 -85 7 0 16 5 19 10 8 14 48 13 63 -2 9
-9 11 -6 7 11 -2 12 0 19 6 16 5 -4 7 -11 4 -16 -4 -5 -1 -9 6 -9 7 0 5 -9 -7
-22 -19 -23 -19 -23 1 -7 11 9 35 22 52 30 18 8 35 20 38 28 7 18 -3 51 -16
51 -5 0 -28 18 -50 40 -23 22 -47 40 -54 40 -7 0 -18 7 -25 15 -7 8 -16 12
-22 9 -5 -3 -15 0 -23 6 -11 9 -15 9 -15 1z"/>
<path d="M13940 3930 c0 -5 5 -10 11 -10 5 0 7 5 4 10 -3 6 -8 10 -11 10 -2 0
-4 -4 -4 -10z"/>
<path d="M13790 3855 c0 -5 5 -17 10 -25 5 -8 10 -10 10 -5 0 6 -5 17 -10 25
-5 8 -10 11 -10 5z"/>
<path d="M13980 3848 c0 -9 5 -20 10 -23 13 -8 13 5 0 25 -8 13 -10 13 -10 -2z"/>
<path d="M13662 3790 c9 -27 28 -50 28 -35 0 9 -30 65 -35 65 -2 0 1 -14 7
-30z"/>
<path d="M13710 3743 c0 -23 23 -84 36 -98 9 -8 11 -15 5 -15 -6 0 -11 -4 -11
-10 0 -5 6 -7 14 -4 10 4 12 -2 9 -20 -4 -18 1 -27 18 -36 22 -12 22 -12 16
43 -3 30 -12 68 -21 84 -14 29 -66 72 -66 56z"/>
<path d="M11140 3681 c0 -10 88 -58 92 -50 2 2 14 17 28 33 21 25 22 27 5 19
-23 -10 -96 -10 -113 1 -7 4 -12 3 -12 -3z"/>
<path d="M14967 3548 c-10 -18 -40 -71 -67 -117 -57 -95 -100 -212 -100 -274
-1 -23 -5 -62 -11 -87 -10 -49 -29 -172 -32 -207 0 -13 -5 -23 -9 -23 -4 0 -6
-10 -5 -21 5 -29 46 -59 82 -59 17 0 58 -17 95 -40 36 -22 68 -40 71 -40 4 0
8 203 8 450 1 248 -2 450 -7 450 -4 0 -16 -15 -25 -32z"/>
<path d="M8820 3340 c0 -5 16 -22 36 -37 20 -15 61 -48 91 -72 30 -24 56 -41
59 -38 2 2 -11 16 -30 31 -19 14 -56 48 -82 76 -44 47 -74 63 -74 40z"/>
<path d="M8758 3309 c-26 -15 -23 -21 25 -51 77 -49 173 -71 107 -25 -11 8
-38 31 -60 51 -42 39 -46 40 -72 25z"/>
<path d="M8590 3200 c-13 -8 -12 -10 3 -10 9 0 17 5 17 10 0 12 -1 12 -20 0z"/>
<path d="M8970 3151 c0 -24 18 -37 32 -23 8 8 7 16 -2 27 -17 21 -30 19 -30
-4z"/>
<path d="M8360 3103 c-47 -19 -88 -38 -92 -41 -6 -6 43 -37 147 -90 40 -21
119 -96 162 -155 19 -26 40 -46 47 -44 16 5 24 94 14 144 -6 28 -22 54 -49 80
-21 21 -39 43 -39 48 0 15 -80 95 -93 94 -7 0 -50 -16 -97 -36z"/>
<path d="M9060 3132 c0 -5 7 -13 16 -16 10 -4 14 -1 12 6 -5 15 -28 23 -28 10z"/>
<path d="M8106 3011 c-4 -5 8 -19 25 -31 l31 -22 -4 28 c-2 21 -9 30 -25 32
-11 2 -24 -1 -27 -7z"/>
<path d="M7920 2959 c-14 -6 -59 -17 -100 -26 -41 -8 -86 -21 -100 -28 -14 -7
-60 -17 -103 -23 -43 -5 -81 -13 -85 -17 -4 -4 4 -15 18 -25 14 -10 48 -39 75
-64 58 -54 50 -57 -64 -23 -76 22 -105 47 -57 47 28 0 32 10 16 39 -10 20 -46
17 -145 -13 -73 -23 -83 -21 -52 12 30 31 35 52 12 52 -9 0 -89 -18 -178 -39
-89 -22 -223 -53 -297 -71 -74 -17 -148 -36 -165 -42 -32 -12 -95 -66 -95 -81
0 -6 22 -7 53 -4 28 4 46 3 39 -2 -19 -12 -9 -63 41 -207 59 -169 84 -248 97
-311 7 -29 15 -53 18 -53 11 0 65 36 90 59 27 26 29 74 6 176 -8 39 -21 113
-29 165 -7 52 -23 122 -34 154 -12 33 -19 62 -16 64 6 7 243 61 266 62 20 0
50 -92 103 -309 20 -80 41 -148 48 -152 9 -6 9 -11 0 -22 -10 -12 -10 -44 -2
-142 11 -146 2 -870 -12 -898 -9 -18 -157 -97 -183 -97 -15 0 -16 2 -39 118
-16 83 -31 109 -52 91 -18 -15 -18 -28 3 -51 9 -10 20 -40 24 -66 4 -26 15
-67 24 -92 9 -25 17 -65 17 -90 1 -25 6 -56 13 -70 13 -25 81 -114 204 -266
85 -105 181 -251 181 -275 0 -10 7 -19 15 -19 8 0 15 6 15 13 0 17 -61 116
-166 269 -50 73 -94 139 -98 146 -10 16 57 -14 102 -46 42 -30 42 -12 -2 58
-73 117 -106 172 -106 175 0 2 9 1 20 -2 28 -7 26 18 -5 67 -32 51 -31 66 3
84 16 8 45 39 65 69 28 43 48 60 90 80 30 13 62 34 73 45 10 11 42 32 71 47
29 14 55 30 58 35 4 6 11 8 16 5 5 -4 9 -2 9 3 0 5 13 12 29 14 22 3 31 0 34
-13 3 -11 21 -22 48 -28 24 -6 58 -16 74 -23 46 -19 200 -16 264 5 29 10 56
16 59 13 10 -11 -20 -34 -53 -40 -37 -7 -45 -20 -19 -30 37 -14 85 -6 404 68
136 31 295 85 445 151 66 28 141 60 168 69 26 10 66 33 88 52 23 19 53 37 68
40 36 7 56 19 59 35 2 11 -11 14 -55 12 -32 -1 -48 1 -37 3 12 3 29 13 38 23
16 17 13 18 -57 20 l-74 2 -32 -38 c-86 -100 -112 -123 -194 -167 -48 -25
-106 -51 -129 -57 -89 -22 -117 -26 -130 -18 -7 5 -23 6 -35 2 -22 -5 -32 10
-14 21 12 8 2 48 -17 63 -8 7 -12 19 -9 28 8 19 27 20 27 0 0 -22 38 -18 52 5
7 11 18 20 25 20 7 0 13 5 13 10 0 6 5 10 10 10 11 0 62 34 87 56 17 17 28 64
14 64 -13 0 -63 -30 -72 -43 -9 -12 -52 -5 -56 9 -6 17 115 94 151 97 31 2 33
-1 21 -38 -6 -19 -6 -19 8 -2 8 9 24 17 36 17 13 0 28 12 41 33 66 110 81 121
228 167 85 27 132 46 132 55 0 15 86 60 108 56 7 -1 11 2 10 6 -2 4 0 10 4 11
4 2 31 17 60 33 29 16 73 38 98 50 25 11 68 31 95 44 143 66 300 117 465 150
86 17 100 23 131 59 26 30 31 31 114 35 84 3 89 5 114 34 43 51 86 113 68 98
-9 -7 -17 -10 -17 -6 0 4 -7 2 -15 -5 -10 -9 -32 -11 -65 -7 -47 6 -54 4 -113
-37 -73 -52 -125 -68 -312 -96 -77 -11 -162 -25 -188 -30 -27 -6 -60 -10 -74
-10 -14 0 -65 -18 -114 -40 -49 -22 -100 -40 -113 -40 -26 0 -54 -13 -101 -46
-17 -12 -50 -24 -75 -28 -25 -4 -56 -10 -69 -13 -22 -6 -23 -4 -16 37 11 62
10 429 -1 440 -5 5 -10 -34 -10 -98 -1 -78 -7 -124 -23 -172 -11 -36 -21 -74
-21 -86 0 -24 -48 -101 -80 -129 l-23 -20 8 20 c38 97 67 213 74 303 6 64 15
111 25 127 9 13 16 27 16 30 0 19 -146 -60 -195 -105 -16 -15 -40 -31 -53 -35
-13 -4 -38 -19 -55 -34 -33 -29 -73 -48 -62 -31 6 9 -21 71 -35 80 -5 3 -20
32 -35 65 -41 94 -105 149 -105 90 0 -14 9 -67 21 -118 12 -50 21 -104 21
-119 -1 -30 29 -58 62 -58 18 0 18 -5 12 -79 -8 -94 -26 -162 -52 -189 -19
-20 -19 -20 -19 59 0 43 3 79 7 79 5 0 8 6 8 14 0 7 9 25 20 39 37 47 20 48
-47 1 -38 -26 -76 -53 -85 -62 -10 -8 -24 -12 -31 -9 -18 7 -16 201 2 287 11
53 11 54 -16 76 l-28 22 -3 -25 c-2 -14 1 -45 7 -69 9 -35 7 -60 -15 -155 -14
-62 -26 -128 -27 -147 -2 -35 -27 -60 -27 -27 0 27 -25 11 -28 -18 -2 -19 -9
-27 -23 -27 -19 0 -27 25 -10 32 10 3 -21 197 -34 218 -4 6 -13 40 -20 74 -22
104 -126 286 -164 286 -14 0 -14 3 9 -71 11 -35 42 -98 70 -139 45 -68 60
-100 45 -100 -4 0 -19 7 -35 15 -33 17 -38 10 -15 -22 25 -36 45 -102 50 -167
8 -96 15 -126 28 -126 7 0 3 -7 -7 -15 -10 -8 -22 -12 -27 -10 -4 3 -10 1 -14
-5 -12 -20 -43 -10 -49 15 -8 32 -26 33 -26 1 0 -29 -24 -41 -40 -20 -7 8 -17
14 -22 14 -6 0 -18 10 -28 23 -10 13 -38 30 -62 37 -56 18 -54 17 -83 19 -17
1 -25 7 -25 19 0 10 -4 22 -8 28 -19 21 -52 119 -52 153 0 33 37 121 51 121
10 0 15 -29 18 -95 2 -63 8 -76 84 -169 29 -36 53 -30 59 15 6 37 -14 94 -35
102 -7 3 -19 23 -25 45 -7 22 -30 58 -52 81 -34 35 -38 44 -30 65 5 13 14 27
19 31 26 16 -6 152 -45 193 -14 14 -11 14 -44 1z m-107 -151 c37 -46 92 -157
82 -166 -3 -3 -25 13 -48 36 -24 23 -52 42 -63 42 -18 0 -19 -6 -18 -90 2
-102 11 -122 73 -166 38 -28 73 -71 87 -106 12 -33 -24 -20 -116 42 -49 33
-106 66 -127 75 -49 19 -187 56 -235 62 -21 3 -43 12 -50 20 -11 14 -6 15 42
8 30 -4 62 -11 70 -15 8 -4 40 -11 70 -15 30 -3 63 -9 73 -11 33 -10 47 14 47
83 0 50 5 70 21 93 19 25 21 37 15 93 -3 35 -3 66 0 70 11 11 41 -11 77 -55z
m1343 -123 c-11 -100 -79 -271 -122 -305 -18 -16 -31 -5 -15 13 6 8 14 35 17
61 4 25 11 46 15 46 5 0 9 5 9 12 0 6 7 20 17 30 15 17 15 18 -10 18 -16 0
-26 -5 -24 -12 1 -7 -9 -14 -21 -16 -21 -3 -23 -1 -17 20 12 39 42 82 74 105
16 13 38 36 47 53 27 45 38 37 30 -25z m-172 -87 c-1 -24 -3 -70 -4 -103 -1
-67 -41 -164 -87 -212 -20 -21 -24 -23 -18 -8 4 11 15 47 22 80 8 33 19 69 23
80 5 11 11 37 14 59 4 34 3 38 -14 33 -29 -7 -34 22 -6 33 13 5 33 25 46 44
12 20 23 36 24 36 2 0 2 -19 0 -42z m36 -102 c0 -8 -4 -18 -10 -21 -5 -3 -10
3 -10 14 0 12 5 21 10 21 6 0 10 -6 10 -14z m-970 -223 c25 -57 13 -79 -25
-43 -32 30 -34 90 -4 90 5 0 17 -21 29 -47z m501 12 c2 -19 3 -25 13 -54 10
-30 -7 -49 -28 -31 -23 18 -39 82 -23 92 19 12 37 9 38 -7z m-1244 -17 c-3 -8
-6 -5 -6 6 -1 11 2 17 5 13 3 -3 4 -12 1 -19z m28 -8 c3 -5 1 -10 -4 -10 -6 0
-11 5 -11 10 0 6 2 10 4 10 3 0 8 -4 11 -10z m62 -11 c7 -7 27 -7 61 -1 36 6
57 5 74 -3 12 -7 35 -18 51 -24 15 -6 27 -18 27 -26 0 -9 5 -13 10 -10 21 13
32 -7 13 -24 -25 -24 -73 -33 -66 -13 5 12 3 12 -15 1 -18 -12 -24 -11 -44 8
-13 11 -33 24 -45 28 -13 3 -23 13 -23 22 0 11 -3 13 -13 5 -16 -13 -51 6 -55
31 -3 19 9 22 25 6z m253 -41 c0 -4 -7 -8 -15 -8 -8 0 -15 4 -15 8 0 5 7 9 15
9 8 0 15 -4 15 -9z m30 -35 c0 -20 -3 -24 -11 -16 -7 7 -9 19 -6 27 10 24 17
19 17 -11z m1163 -254 c-9 -9 -53 -1 -53 10 0 4 14 6 31 3 17 -2 27 -8 22 -13z
m-155 -33 c-9 -7 -36 -18 -60 -25 -24 -7 -51 -17 -61 -23 -11 -5 -21 -7 -24
-4 -9 9 112 63 147 65 12 0 12 -2 -2 -13z m-223 -83 c-15 -28 -32 -43 -53 -43
-23 0 -9 44 18 57 41 21 51 17 35 -14z m160 -23 c3 -5 -19 -21 -50 -35 -30
-15 -55 -31 -55 -37 0 -22 -23 0 -26 24 -2 23 3 29 39 42 50 17 84 20 92 6z
m-425 -100 c0 -5 -7 -10 -16 -10 -8 0 -12 5 -9 10 3 6 10 10 16 10 5 0 9 -4 9
-10z m-390 -180 c0 -5 -5 -10 -11 -10 -5 0 -7 5 -4 10 3 6 8 10 11 10 2 0 4
-4 4 -10z m120 -29 c0 -12 -29 -23 -41 -15 -5 3 -7 10 -4 15 8 12 45 12 45 0z
m338 -3 c-6 -18 -28 -21 -28 -4 0 9 7 16 16 16 9 0 14 -5 12 -12z"/>
<path d="M9072 2605 c-7 -15 -8 -26 -2 -30 6 -4 12 1 15 9 3 9 7 23 10 31 7
25 -11 17 -23 -10z"/>
<path d="M8056 2933 c3 -16 18 -46 33 -68 15 -22 31 -48 34 -57 12 -33 26 -20
16 15 -5 17 -8 47 -7 65 2 27 -3 36 -27 52 -43 28 -57 26 -49 -7z"/>
<path d="M8040 2771 c0 -17 4 -31 9 -31 5 0 12 -13 16 -30 7 -34 38 -41 54
-13 13 24 -9 63 -48 86 l-31 18 0 -30z"/>
<path d="M8165 2698 c17 -107 37 -147 70 -134 11 4 14 13 9 30 -3 13 -1 27 6
31 16 10 2 44 -36 81 -46 46 -57 44 -49 -8z"/>
<path d="M8453 2640 c3 -41 11 -111 18 -155 13 -78 13 -79 20 -40 18 95 3 231
-28 257 -15 12 -16 6 -10 -62z"/>
<path d="M938 2655 c-3 -3 -4 -25 -2 -48 2 -23 11 -175 20 -337 10 -162 21
-305 25 -317 13 -35 39 -18 39 26 0 20 -12 149 -25 286 -40 393 -41 405 -57
390z"/>
<path d="M6443 2587 c-91 -18 -163 -48 -169 -71 -3 -13 26 -114 75 -261 45
-131 81 -246 81 -257 0 -10 6 -18 13 -18 28 0 291 87 295 98 2 7 -9 17 -24 22
-30 12 -66 10 -62 -3 4 -11 -58 -37 -88 -37 -13 0 -24 -5 -24 -11 0 -6 -9 -9
-20 -6 -11 3 -20 2 -20 -3 0 -4 -14 -10 -31 -12 -28 -4 -30 -3 -26 21 3 15 -1
33 -9 42 -18 20 -9 47 20 60 18 8 16 9 -10 6 -23 -2 -31 0 -27 10 7 18 63 17
63 -1 0 -11 13 -10 68 6 37 11 83 22 103 25 33 4 37 2 44 -24 5 -15 8 -30 8
-33 -1 -3 5 -11 13 -18 12 -11 14 -8 14 15 0 45 -80 354 -107 410 l-24 52 -59
-2 c-32 -1 -76 -5 -97 -10z m237 -342 c0 -14 -3 -24 -7 -23 -7 2 -37 -4 -98
-18 -16 -4 -14 -1 5 10 14 9 35 15 46 16 12 0 26 6 32 13 9 10 4 12 -24 9 -19
-2 -37 -8 -40 -13 -3 -5 -13 -9 -22 -8 -24 1 58 38 86 39 17 0 22 -6 22 -25z
m-155 -25 c-27 -12 -43 -12 -25 0 8 5 22 9 30 9 10 0 8 -3 -5 -9z m-58 -16
c-3 -3 -12 -4 -19 -1 -8 3 -5 6 6 6 11 1 17 -2 13 -5z m69 -13 c-8 -12 -46
-21 -46 -11 0 9 18 18 38 19 7 1 11 -3 8 -8z"/>
<path d="M11943 2514 c-9 -14 -52 -51 -95 -81 -84 -59 -100 -81 -40 -57 62 26
209 144 195 158 -14 14 -44 4 -60 -20z"/>
<path d="M6070 2510 c-93 -22 -109 -28 -106 -43 2 -7 6 -30 10 -52 5 -22 27
-101 51 -175 48 -149 78 -250 96 -322 6 -27 16 -48 23 -48 6 0 35 23 65 51
l54 51 -6 57 c-4 32 -13 84 -22 117 -19 71 -34 149 -41 224 -4 30 -10 60 -15
65 -4 6 -11 30 -15 53 -4 23 -9 42 -13 41 -3 0 -40 -9 -81 -19z"/>
<path d="M8200 2433 c0 -22 26 -73 37 -73 16 0 16 5 1 47 -7 18 -18 33 -25 33
-7 0 -13 -3 -13 -7z"/>
<path d="M5505 2398 c-27 -4 -65 -10 -82 -13 -23 -4 -33 -11 -33 -24 0 -34
-84 -43 -93 -10 -4 14 -11 19 -24 16 -10 -3 -92 -11 -183 -17 -91 -6 -174 -13
-185 -15 -18 -4 -24 -21 -44 -122 -12 -65 -29 -137 -37 -160 -19 -51 -99 -131
-227 -225 -167 -122 -220 -163 -236 -180 -8 -10 -22 -18 -29 -18 -17 0 -112
-68 -112 -80 0 -5 -9 -12 -21 -15 -11 -4 -18 -9 -15 -12 3 -3 20 0 38 7 58 24
201 89 253 116 28 14 133 69 235 121 102 53 196 104 210 113 41 28 344 202
355 204 6 1 16 5 24 10 8 5 30 10 50 12 31 3 33 2 16 -8 -11 -6 -37 -26 -58
-45 -20 -18 -41 -33 -46 -33 -9 0 -71 -60 -71 -69 0 -3 4 -12 9 -20 8 -13 12
-13 27 0 15 12 17 12 12 -1 -2 -8 -15 -20 -27 -26 -22 -11 -22 -12 -5 -22 17
-10 15 -15 -27 -54 -25 -24 -54 -58 -65 -75 -10 -18 -24 -33 -31 -33 -7 0 -13
-4 -13 -9 0 -9 -41 -54 -200 -218 -27 -29 -50 -57 -50 -62 0 -6 -11 -18 -25
-27 -14 -9 -25 -20 -25 -25 0 -15 26 -10 50 11 12 11 27 17 31 14 5 -3 9 2 9
10 0 9 6 16 14 16 8 0 23 11 34 25 11 14 25 25 31 25 14 0 66 36 101 70 14 14
43 38 65 54 22 16 45 34 50 41 24 29 148 115 166 115 10 0 19 7 19 15 0 8 9
15 19 15 11 0 26 7 35 15 8 8 22 15 30 15 9 0 16 4 16 8 0 5 12 15 28 23 15 8
34 22 43 31 9 10 27 19 40 20 13 2 26 6 29 10 3 4 11 4 18 -1 9 -5 9 -19 0
-63 -7 -32 -16 -54 -22 -51 -5 4 -7 0 -3 -9 4 -11 -25 -48 -89 -114 -51 -55
-94 -102 -94 -106 0 -12 38 -10 45 2 3 6 15 10 26 10 10 0 19 5 19 10 0 6 4
10 9 10 5 0 9 -28 8 -61 -2 -45 2 -63 12 -67 8 -3 11 0 7 7 -13 20 4 49 31 56
15 3 34 15 43 25 14 16 39 25 63 21 17 -2 -22 -31 -42 -31 -12 0 -21 -6 -21
-15 0 -20 12 -19 55 5 42 23 52 25 36 6 -6 -7 -9 -20 -6 -29 4 -8 -20 -81 -52
-163 -47 -121 -65 -155 -98 -187 -37 -35 -257 -156 -315 -172 l-25 -7 26 19
c14 10 34 26 45 36 10 10 48 41 84 68 65 51 79 65 135 134 39 49 89 135 78
135 -21 0 -251 -237 -298 -306 -29 -43 -58 -71 -125 -123 -25 -19 -74 -62
-110 -95 -36 -34 -85 -75 -110 -92 -25 -17 -106 -76 -180 -130 -74 -54 -154
-111 -176 -126 -65 -42 -310 -189 -412 -248 -82 -47 -114 -70 -98 -70 8 0 184
85 226 110 19 11 82 42 140 70 58 28 134 69 170 90 36 22 101 58 145 80 44 22
87 44 95 49 26 14 83 39 122 52 21 7 40 21 43 30 4 10 15 21 26 24 18 6 23 20
20 56 -4 44 94 62 195 36 59 -15 81 -12 63 9 -9 11 -8 14 5 14 9 0 16 7 16 15
0 14 67 55 90 55 24 0 101 42 114 63 29 43 129 81 178 66 18 -5 35 -9 38 -9 3
0 4 47 2 105 -3 70 0 115 8 136 8 19 9 34 3 40 -5 5 -7 31 -3 57 15 117 -3
290 -32 308 -6 4 -8 -1 -4 -14 5 -15 1 -24 -13 -31 -17 -9 -18 -8 -14 12 3 12
12 29 19 37 26 30 25 94 -1 265 -30 197 -44 255 -84 352 -16 39 -32 85 -36
102 -3 17 -10 32 -13 34 -4 2 -29 0 -57 -5z m1 -111 c17 -17 -34 -79 -99 -123
-78 -52 -86 -50 -98 23 -4 26 -11 63 -15 82 l-7 33 106 -4 c58 -2 109 -7 113
-11z m-104 -159 c-7 -7 -12 -8 -12 -2 0 14 12 26 19 19 2 -3 -1 -11 -7 -17z"/>
<path d="M14942 2356 c-28 -11 -62 -52 -62 -76 0 -4 17 -10 38 -13 20 -3 47
-9 60 -13 21 -6 22 -4 22 55 0 66 -1 67 -58 47z"/>
<path d="M11685 2327 c-16 -13 -65 -45 -107 -71 -77 -47 -89 -64 -68 -96 7
-11 10 -7 10 17 0 29 3 32 42 38 61 11 168 82 168 112 0 29 -7 29 -45 0z"/>
<path d="M4620 2320 c-85 -5 -121 -12 -190 -39 -47 -19 -105 -39 -130 -46 -25
-7 -79 -25 -120 -40 -41 -15 -102 -34 -135 -42 -33 -7 -87 -29 -120 -47 -33
-19 -83 -46 -112 -60 -47 -25 -51 -29 -44 -54 10 -37 5 -144 -9 -189 -8 -25
-37 -61 -83 -106 -42 -40 -71 -76 -72 -90 -6 -75 -6 -160 1 -209 4 -39 3 -62
-5 -71 -6 -8 -8 -27 -5 -44 3 -17 1 -40 -5 -52 -7 -11 -10 -21 -8 -21 2 0 58
25 123 56 116 54 174 95 174 121 0 7 25 24 55 39 41 20 64 41 95 85 42 59 135
149 180 173 14 7 50 28 80 47 30 19 62 35 70 37 30 6 216 116 265 156 90 73
97 81 125 121 28 40 100 233 100 267 0 20 -19 21 -230 8z m-420 -241 c0 -10 5
-21 10 -24 13 -8 13 -65 0 -85 -8 -13 -10 -13 -10 0 0 8 -24 -12 -54 -44 -42
-46 -62 -60 -92 -65 -22 -4 -38 -12 -36 -19 1 -7 -7 -12 -18 -12 -11 0 -23 -6
-25 -12 -8 -20 -55 -19 -55 1 0 15 35 80 49 91 3 3 19 24 35 48 16 23 33 42
39 42 6 0 8 3 4 6 -10 11 20 65 43 77 12 7 21 16 19 22 -2 5 10 12 26 16 34 6
65 -14 65 -42z"/>
<path d="M9849 2291 l-24 -20 28 -1 c16 0 37 -4 47 -10 13 -7 21 -5 31 6 27
33 -45 56 -82 25z"/>
<path d="M6548 2073 c7 -3 16 -2 19 1 4 3 -2 6 -13 5 -11 0 -14 -3 -6 -6z"/>
<path d="M3370 2045 c-36 -12 -103 -39 -150 -59 -47 -19 -91 -36 -97 -36 -7 0
-13 -4 -13 -8 0 -4 -24 -26 -52 -47 -29 -22 -57 -46 -62 -53 -4 -8 -19 -23
-32 -35 -13 -11 -24 -26 -24 -33 0 -6 -7 -17 -15 -24 -8 -7 -15 -23 -15 -35 0
-12 -7 -39 -15 -59 -8 -20 -15 -38 -15 -41 0 -3 -9 -14 -20 -25 -20 -20 -27
-50 -12 -50 4 0 16 -13 25 -30 10 -16 15 -30 11 -30 -3 0 -2 -6 3 -12 5 -7 18
-35 27 -61 10 -27 26 -56 36 -65 10 -9 25 -34 33 -54 17 -40 13 -44 -30 -39
-19 3 -16 -26 3 -33 15 -6 11 -26 -5 -26 -15 0 -60 48 -53 56 4 4 1 4 -5 0 -7
-4 -13 -21 -13 -37 0 -17 -4 -28 -8 -25 -5 3 -9 -1 -9 -9 0 -8 8 -11 21 -8 56
14 76 15 76 4 0 -8 6 -8 18 -2 9 5 32 16 50 23 17 7 32 17 32 23 0 5 4 4 9 -4
13 -21 84 -5 112 26 22 23 24 32 22 133 -1 92 -5 116 -27 164 -14 31 -26 64
-26 73 0 8 -9 31 -21 49 -21 34 -21 34 -2 72 23 44 57 64 96 57 19 -3 26 -1
21 7 -5 7 0 9 14 6 12 -4 20 -3 17 1 -5 9 106 66 146 76 13 3 34 14 47 23 21
16 22 22 16 95 -8 90 -9 90 -114 52z"/>
<path d="M11225 2060 c-3 -5 7 -36 22 -67 20 -42 34 -59 51 -61 20 -3 22 1 22
38 0 34 -4 42 -24 50 -14 5 -30 18 -36 30 -12 22 -25 26 -35 10z"/>
<path d="M3673 2043 c9 -2 23 -2 30 0 6 3 -1 5 -18 5 -16 0 -22 -2 -12 -5z"/>
<path d="M1617 1828 c-13 -40 42 -133 65 -110 7 7 2 28 -15 66 -25 55 -41 69
-50 44z"/>
<path d="M9320 1830 c-9 -6 -10 -10 -3 -10 6 0 15 5 18 10 8 12 4 12 -15 0z"/>
<path d="M9260 1819 c0 -5 5 -7 10 -4 6 3 10 8 10 11 0 2 -4 4 -10 4 -5 0 -10
-5 -10 -11z"/>
<path d="M2219 1800 c13 -6 36 -11 50 -12 35 -2 60 -25 54 -49 -5 -17 24 -95
32 -87 2 2 4 24 6 49 4 71 -19 96 -101 103 -49 5 -59 4 -41 -4z"/>
<path d="M2695 1783 c7 -31 45 -73 45 -51 0 15 -37 78 -46 78 -3 0 -3 -12 1
-27z"/>
<path d="M10945 1614 c-220 -73 -474 -156 -565 -184 -219 -69 -381 -133 -368
-146 4 -3 57 13 398 124 69 22 285 95 480 161 195 67 371 121 390 121 40 0 91
33 75 48 -6 6 -158 -40 -410 -124z"/>
<path d="M2640 1720 c0 -19 3 -21 12 -12 9 9 9 15 0 24 -9 9 -12 7 -12 -12z"/>
<path d="M695 1715 l-30 -15 35 6 c19 4 42 10 50 15 27 15 -22 10 -55 -6z"/>
<path d="M1693 1700 c7 -28 -14 -40 -77 -47 -39 -4 -61 -12 -76 -28 l-21 -22
42 -41 c24 -22 59 -49 78 -59 20 -10 37 -21 39 -25 5 -11 81 -30 93 -23 5 4
15 2 22 -3 20 -15 67 -24 67 -12 0 6 13 2 29 -9 16 -12 36 -21 45 -21 8 0 39
-9 67 -20 36 -14 55 -18 62 -11 6 6 9 12 6 14 -9 9 -138 57 -151 57 -7 0 -28
9 -46 20 -18 11 -38 20 -46 20 -7 0 -26 11 -42 25 -24 20 -27 28 -18 42 6 10
21 19 33 21 12 2 25 10 27 17 4 9 13 11 34 5 45 -13 156 -68 170 -85 7 -8 19
-15 26 -15 8 0 14 -4 14 -8 0 -5 19 -19 43 -32 23 -13 51 -32 61 -42 11 -10
25 -18 32 -18 15 0 44 -27 44 -40 0 -5 -14 -7 -32 -3 -43 9 -29 -12 20 -27 20
-7 41 -16 47 -21 5 -5 17 -9 27 -9 10 0 18 -7 18 -16 0 -8 6 -21 13 -29 9 -9
14 -42 16 -96 0 -50 6 -86 12 -90 7 -4 9 -14 6 -23 -4 -10 -1 -16 7 -16 7 0
18 -17 24 -39 16 -50 16 -48 -15 -56 -40 -10 -9 -25 52 -25 76 0 79 5 65 89
-6 39 -9 78 -6 86 3 8 -7 35 -21 61 -20 35 -27 66 -31 122 -4 68 -3 75 12 69
10 -4 20 -7 22 -7 2 0 4 -9 4 -21 0 -11 9 -32 20 -46 11 -14 20 -34 20 -44 0
-11 4 -19 9 -19 5 0 11 -10 13 -22 2 -13 9 -22 15 -21 10 2 25 -24 28 -47 3
-25 31 -70 50 -80 22 -12 27 -9 67 31 47 48 68 82 68 108 0 9 4 21 9 27 5 5
12 19 15 30 5 17 2 23 -19 28 -18 5 -25 13 -25 31 0 13 -5 27 -11 30 -6 4 -8
14 -4 23 3 9 -4 35 -16 58 l-23 42 -16 -31 c-12 -22 -15 -42 -10 -74 7 -45 -5
-57 -32 -30 -7 7 -21 16 -32 20 -12 5 -17 14 -13 26 5 22 -27 39 -81 43 -33 2
-55 24 -65 63 -4 18 -5 18 -7 -2 -1 -13 -3 -28 -4 -34 0 -5 -12 -18 -25 -28
-21 -16 -27 -16 -65 -4 -22 8 -59 22 -81 32 -22 10 -57 24 -77 32 -21 7 -38
17 -38 21 0 4 -6 8 -13 8 -7 0 -31 16 -53 35 -21 20 -55 40 -74 45 -19 5 -44
16 -55 23 -11 7 -40 19 -65 27 -25 8 -61 24 -80 37 -19 13 -38 23 -43 23 -5 0
-23 11 -41 25 -40 30 -50 31 -43 5z m72 -70 c-3 -5 -11 -10 -16 -10 -6 0 -7 5
-4 10 3 6 11 10 16 10 6 0 7 -4 4 -10z"/>
<path d="M2736 1648 c4 -13 7 -30 8 -38 1 -8 7 -21 14 -29 12 -12 15 -12 23 0
5 8 4 15 -1 17 -6 2 -10 8 -10 13 0 6 5 7 10 4 18 -11 11 21 -8 38 -27 25 -45
22 -36 -5z"/>
<path d="M240 1610 c-13 -9 -13 -10 0 -9 8 0 24 4 35 9 l20 9 -20 0 c-11 0
-27 -4 -35 -9z"/>
<path d="M2672 1565 c1 -23 -1 -45 -4 -51 -4 -5 1 -18 10 -29 9 -11 16 -18 15
-16 -1 2 1 11 6 20 5 10 1 35 -10 66 l-19 50 2 -40z"/>
<path d="M2418 1558 c-2 -7 -1 -29 3 -48 6 -34 6 -33 8 13 1 46 -3 59 -11 35z"/>
<path d="M2370 1510 c0 -5 5 -10 10 -10 6 0 10 5 10 10 0 6 -4 10 -10 10 -5 0
-10 -4 -10 -10z"/>
<path d="M13637 1479 c4 -12 11 -18 20 -15 8 3 25 6 38 6 12 0 25 7 29 15 4
12 -4 15 -43 15 -45 0 -49 -2 -44 -21z"/>
<path d="M6690 1450 c-63 -21 -142 -46 -175 -56 -33 -9 -55 -19 -50 -21 6 -2
33 4 60 12 186 59 244 75 273 75 22 0 32 4 30 12 -7 19 -18 18 -138 -22z"/>
<path d="M2386 1473 c-10 -10 -7 -53 4 -53 5 0 7 -7 4 -15 -4 -8 -1 -15 6 -15
7 0 10 8 7 20 -3 11 -1 23 4 26 14 8 11 31 -5 37 -8 3 -17 3 -20 0z"/>
<path d="M2760 1463 c0 -11 -3 -33 -6 -49 -6 -29 21 -74 44 -74 30 0 16 94
-20 126 -17 16 -18 16 -18 -3z"/>
<path d="M645 1398 c-13 -29 -41 -34 -66 -12 -23 20 -33 14 -24 -15 13 -41
115 -14 115 30 0 26 -13 24 -25 -3z"/>
<path d="M13365 1400 c-4 -7 3 -8 22 -4 38 9 42 14 10 14 -14 0 -29 -5 -32
-10z"/>
<path d="M2085 1380 c3 -5 8 -10 11 -10 2 0 4 5 4 10 0 6 -5 10 -11 10 -5 0
-7 -4 -4 -10z"/>
<path d="M13010 1370 c-13 -8 -12 -10 3 -10 9 0 17 5 17 10 0 12 -1 12 -20 0z"/>
<path d="M431 1352 c-37 -12 -45 -12 -52 -1 -14 22 -31 -9 -18 -33 21 -39 129
-14 129 30 0 18 -13 19 -59 4z"/>
<path d="M6395 1356 c-39 -18 -74 -45 -58 -46 7 0 11 -6 9 -12 -1 -7 -1 -9 2
-5 2 4 27 23 55 42 52 35 48 46 -8 21z"/>
<path d="M8820 1352 c-19 -9 -56 -26 -82 -38 -26 -13 -65 -26 -85 -30 -21 -4
-56 -15 -78 -25 -22 -10 -56 -19 -75 -19 -34 0 -246 -41 -325 -64 -28 -8 -40
-17 -40 -29 0 -10 -9 -23 -20 -29 -38 -21 -80 -61 -81 -77 -1 -9 -4 -26 -8
-38 -7 -21 -4 -23 33 -23 26 0 41 -5 41 -12 0 -8 3 -9 8 -3 4 6 17 16 29 22
19 11 24 10 31 -4 9 -15 15 -13 53 15 43 32 74 41 81 23 2 -5 20 -12 40 -16
35 -7 39 -5 55 24 10 17 29 34 42 38 27 7 170 -3 179 -12 4 -3 -9 -18 -27 -32
-24 -19 -48 -27 -85 -29 -76 -4 -114 -9 -191 -27 -90 -19 -223 -40 -255 -38
-23 1 -23 0 -7 -16 14 -14 46 -19 174 -25 95 -4 159 -11 161 -18 2 -5 10 -10
17 -10 7 0 25 -6 39 -14 21 -10 23 -15 11 -19 -8 -4 -15 -18 -15 -31 0 -23 3
-25 33 -19 17 3 55 14 82 24 59 22 109 26 55 4 -53 -21 -299 -111 -440 -160
-69 -24 -205 -66 -303 -94 -180 -51 -233 -71 -209 -79 14 -4 165 40 487 145
127 41 312 97 412 124 169 46 296 88 515 171 49 18 88 36 88 39 0 24 -78 7
-290 -59 l-65 -21 25 21 c14 11 48 33 75 49 28 15 74 53 104 83 l54 55 -26 39
c-35 49 -105 117 -88 84 14 -26 9 -38 -19 -45 -13 -3 -20 0 -20 9 0 8 -5 14
-11 14 -6 0 -8 -8 -5 -17 16 -59 15 -79 -4 -111 -11 -18 -28 -36 -37 -39 -10
-4 -42 -32 -73 -63 -30 -30 -68 -61 -85 -68 -37 -15 -74 -12 -68 4 3 7 12 10
20 7 11 -4 14 -2 11 8 -5 15 5 27 37 45 16 9 19 21 17 59 -3 51 13 80 55 96
12 4 30 23 39 41 9 18 25 39 36 46 13 10 17 20 12 35 -6 21 -6 21 9 3 8 -11
12 -28 9 -39 -3 -14 -1 -18 6 -13 7 4 12 13 12 21 0 8 10 21 21 29 l22 15 -32
47 c-17 26 -31 53 -31 60 0 21 -13 22 -50 6z m1 -95 c-10 -9 -11 -8 -5 6 3 10
9 15 12 12 3 -3 0 -11 -7 -18z m-3 -63 c-14 -14 -15 -14 -10 11 3 19 8 23 15
16 8 -8 7 -16 -5 -27z m-318 18 c0 -16 -24 -32 -49 -32 -23 0 -24 1 -6 20 18
20 55 28 55 12z m-195 -42 c3 -5 -1 -10 -9 -10 -9 0 -16 5 -16 10 0 6 4 10 9
10 6 0 13 -4 16 -10z m205 -34 c0 -7 -10 -18 -22 -24 -31 -16 -117 -31 -123
-22 -3 4 7 21 23 37 24 26 32 28 75 25 28 -2 47 -9 47 -16z m-255 -56 c17 -19
17 -20 -9 -30 -15 -5 -44 -10 -64 -10 l-36 0 29 30 c33 35 55 38 80 10z m-152
-26 c11 -11 -5 -34 -24 -34 -18 0 -26 20 -12 33 8 9 28 9 36 1z m495 -143 c35
-2 -13 -59 -65 -75 -26 -8 -39 9 -23 29 7 8 10 22 6 30 -3 9 -2 13 4 10 6 -3
10 -2 10 4 0 5 12 8 28 6 15 -2 33 -4 40 -4z m2 -61 c0 -5 -5 -10 -11 -10 -5
0 -7 5 -4 10 3 6 8 10 11 10 2 0 4 -4 4 -10z"/>
<path d="M690 1324 c-52 -13 -115 -30 -140 -39 l-45 -15 60 5 c33 2 87 11 120
19 33 8 63 12 67 10 3 -2 9 0 13 5 3 6 13 7 21 4 9 -3 20 0 25 8 22 35 11 36
-121 3z"/>
<path d="M178 1291 c-5 -14 -88 -22 -88 -9 0 9 -3 9 -11 1 -8 -8 -8 -17 1 -33
10 -19 18 -22 52 -17 45 6 79 32 71 53 -6 16 -20 19 -25 5z"/>
<path d="M695 1240 c-58 -16 -74 -31 -39 -38 15 -4 36 4 86 29 10 5 27 9 38 9
11 0 20 5 20 10 0 14 -34 11 -105 -10z"/>
<path d="M225 1214 c-33 -7 -97 -21 -142 -30 l-83 -17 0 -110 0 -109 48 28
c29 17 64 29 92 30 25 1 69 7 99 13 29 6 65 11 80 10 22 0 18 -4 -24 -25 -27
-13 -55 -22 -62 -19 -7 2 -43 -7 -80 -20 -37 -14 -78 -25 -91 -25 -43 0 -62
-18 -62 -57 0 -29 3 -33 14 -24 7 6 26 13 42 15 46 7 186 45 198 55 6 5 27 11
46 13 61 9 205 40 212 47 3 3 8 35 11 71 3 36 7 72 9 80 4 20 -44 23 -192 12
-65 -5 -123 -5 -132 0 -33 16 -19 36 35 48 60 14 94 30 62 29 -11 -1 -47 -7
-80 -15z m115 -238 c0 -2 -11 -6 -25 -8 -13 -3 -22 -1 -19 3 5 9 44 13 44 5z
m-100 -15 c0 -5 -14 -14 -30 -20 -21 -7 -29 -7 -24 0 5 8 33 24 52 28 1 1 2
-3 2 -8z m-203 -67 c-3 -3 -12 -4 -19 -1 -8 3 -5 6 6 6 11 1 17 -2 13 -5z"/>
<path d="M3530 1205 c0 -8 4 -15 10 -15 5 0 7 7 4 15 -4 8 -8 15 -10 15 -2 0
-4 -7 -4 -15z"/>
<path d="M13333 1183 c-15 -6 -17 -33 -3 -33 6 0 10 5 10 10 0 6 7 10 15 10 8
0 15 5 15 10 0 10 -16 12 -37 3z"/>
<path d="M13032 1158 c-17 -17 -15 -38 3 -38 9 0 12 6 9 15 -7 18 7 20 25 3
11 -11 13 -10 7 5 -3 10 -6 21 -6 23 0 9 -27 3 -38 -8z"/>
<path d="M11055 1081 c-132 -42 -915 -302 -1740 -577 -1097 -365 -1490 -500
-1465 -502 25 -2 208 55 615 193 319 108 1084 364 1701 570 617 205 1130 377
1140 383 40 24 -17 8 -251 -67z"/>
<path d="M9950 1000 c-18 -12 -2 -12 25 0 13 6 15 9 5 9 -8 0 -22 -4 -30 -9z"/>
<path d="M7980 980 c0 -5 7 -7 15 -4 8 4 15 8 15 10 0 2 -7 4 -15 4 -8 0 -15
-4 -15 -10z"/>
<path d="M9855 969 c-27 -10 -38 -17 -23 -14 35 7 78 23 78 30 0 3 -1 5 -2 4
-2 0 -25 -9 -53 -20z"/>
<path d="M6248 958 c-31 -8 -38 -15 -38 -34 0 -29 1 -29 48 -5 21 11 55 23 76
26 26 5 34 10 24 16 -17 11 -62 10 -110 -3z"/>
<path d="M496 867 c-11 -8 -15 -17 -10 -20 14 -8 37 8 33 22 -3 8 -10 8 -23
-2z"/>
<path d="M380 856 c0 -8 -6 -17 -12 -19 -7 -3 -3 -6 8 -6 17 -1 20 -6 16 -26
-8 -42 38 -21 53 24 6 21 5 23 -14 18 -14 -3 -24 0 -28 9 -7 18 -23 18 -23 0z"/>
<path d="M11130 815 c-197 -68 -220 -76 -220 -86 0 -4 46 -42 103 -84 56 -41
133 -98 170 -126 100 -75 102 -75 104 51 3 156 -7 290 -20 289 -7 -1 -68 -21
-137 -44z"/>
<path d="M8348 843 c6 -2 10 -9 6 -14 -3 -5 0 -9 5 -9 6 0 11 7 11 15 0 8 -8
15 -17 14 -11 0 -13 -3 -5 -6z"/>
<path d="M0 830 c0 -5 5 -10 10 -10 6 0 10 5 10 10 0 6 -4 10 -10 10 -5 0 -10
-4 -10 -10z"/>
<path d="M8368 773 c6 -2 18 -2 25 0 6 3 1 5 -13 5 -14 0 -19 -2 -12 -5z"/>
<path d="M2008 744 c-5 -4 -8 -36 -8 -71 0 -59 -2 -64 -25 -73 -26 -10 -34
-22 -12 -19 27 3 35 -2 39 -26 5 -22 -2 -29 -23 -27 -4 1 -2 -9 4 -23 8 -16
14 -20 19 -12 5 7 8 0 8 -16 0 -16 11 -43 26 -62 14 -19 21 -36 15 -39 -5 -3
-18 5 -29 19 -24 30 -32 32 -25 5 5 -20 -17 -50 -36 -50 -6 0 -10 -5 -9 -12 2
-6 -21 -21 -49 -32 -29 -12 -53 -25 -53 -29 0 -5 -11 -22 -25 -39 -14 -16 -25
-26 -25 -22 0 5 -5 3 -12 -4 -7 -7 -20 -12 -30 -12 -10 0 -18 -4 -18 -10 0 -5
-8 -10 -18 -10 -10 0 -23 -5 -30 -12 -17 -17 -27 -1 -11 19 9 11 10 14 2 9
-25 -15 -12 8 20 35 30 26 31 28 10 29 -13 0 -23 5 -23 11 0 6 -12 1 -26 -10
-15 -12 -37 -21 -50 -21 -34 0 -30 -12 22 -60 65 -60 160 -102 244 -108 65 -4
70 -3 93 23 20 23 27 26 43 17 12 -8 14 -11 5 -12 -8 0 -12 -2 -9 -5 7 -7 103
18 164 43 27 12 69 23 94 26 25 3 90 17 145 31 122 31 135 31 135 4 0 -11 5
-17 10 -14 6 3 10 13 10 22 0 9 7 21 15 27 13 10 9 26 -31 121 -25 61 -61 148
-80 195 -19 47 -39 89 -45 95 -18 18 -9 -40 11 -70 25 -37 28 -118 5 -109 -12
5 -15 -2 -15 -29 0 -27 -7 -40 -27 -56 -85 -63 -113 -87 -113 -99 0 -8 9 -11
25 -8 16 3 29 -1 37 -13 7 -9 21 -20 31 -24 34 -13 6 -30 -39 -24 -25 2 -47 1
-50 -4 -16 -27 -154 91 -167 143 -4 13 -18 30 -32 36 -20 9 -25 17 -20 31 4
12 0 23 -10 29 -23 12 -36 70 -43 195 -4 60 -10 105 -14 101z m-44 -532 c-34
-18 -44 -6 -32 38 l10 35 24 -30 24 -30 -26 -13z m-44 18 c0 -5 -7 -10 -16
-10 -8 0 -12 5 -9 10 3 6 10 10 16 10 5 0 9 -4 9 -10z m25 -50 c-4 -6 -16 -8
-28 -5 -17 5 -19 4 -7 -4 18 -12 13 -17 -23 -26 -29 -8 -39 8 -11 19 8 3 12
10 9 16 -4 6 8 10 30 10 23 0 34 -4 30 -10z m78 -30 c-5 -20 -23 -26 -36 -13
-9 8 23 44 33 38 5 -3 6 -14 3 -25z m-133 -50 c0 -5 -7 -10 -16 -10 -8 0 -12
5 -9 10 3 6 10 10 16 10 5 0 9 -4 9 -10z"/>
<path d="M175 720 c-3 -5 1 -10 9 -10 9 0 16 5 16 10 0 6 -4 10 -9 10 -6 0
-13 -4 -16 -10z"/>
<path d="M6993 713 c-23 -9 -14 -33 12 -33 27 0 28 1 19 24 -6 17 -11 18 -31
9z"/>
<path d="M438 698 c-16 -5 -28 -13 -28 -18 0 -10 49 2 77 19 17 10 17 10 -2
10 -11 0 -32 -5 -47 -11z"/>
<path d="M2401 700 c0 -8 4 -22 9 -30 12 -18 12 -2 0 25 -6 13 -9 15 -9 5z"/>
<path d="M340 610 c0 -5 5 -10 11 -10 5 0 7 5 4 10 -3 6 -8 10 -11 10 -2 0 -4
-4 -4 -10z"/>
<path d="M175 599 c-9 -14 -2 -20 14 -10 8 6 9 11 3 15 -6 3 -14 1 -17 -5z"/>
<path d="M322 583 c-19 -8 -4 -23 24 -23 16 0 24 5 22 13 -5 13 -26 18 -46 10z"/>
<path d="M1981 554 c0 -11 3 -14 6 -6 3 7 2 16 -1 19 -3 4 -6 -2 -5 -13z"/>
<path d="M163 548 c-31 -15 -29 -30 2 -16 14 6 25 15 25 20 0 9 1 10 -27 -4z"/>
<path d="M286 551 c-4 -7 -5 -15 -2 -18 9 -9 19 4 14 18 -4 11 -6 11 -12 0z"/>
<path d="M516 539 c-4 -9 -6 -20 -4 -26 4 -11 -62 -100 -79 -107 -7 -3 -13 2
-13 10 0 9 -6 14 -12 11 -7 -2 -20 0 -30 4 -11 6 -18 4 -22 -8 -4 -9 -3 -19 1
-22 13 -9 14 -31 2 -31 -5 0 -7 -4 -4 -10 3 -5 -5 -15 -19 -22 -26 -11 -35
-28 -16 -28 6 0 10 -6 10 -14 0 -8 11 -23 25 -34 21 -16 29 -18 49 -9 20 9 21
13 10 25 -8 7 -14 20 -14 27 0 8 -9 17 -21 20 -28 9 -18 28 19 36 31 6 43 -3
22 -16 -22 -14 -8 -22 28 -15 51 9 66 18 53 34 -7 9 -7 16 1 24 9 9 7 12 -10
12 -13 0 -22 6 -22 15 0 14 5 20 48 53 21 15 23 22 14 52 -7 26 -11 31 -16 19z"/>
<path d="M2283 490 c-33 -60 -24 -73 15 -21 23 32 39 81 26 81 -5 0 -24 -27
-41 -60z"/>
<path d="M44 510 c-26 -10 -41 -30 -22 -30 20 1 62 27 52 32 -5 3 -19 2 -30
-2z"/>
<path d="M61 462 c-14 -12 -11 -13 18 -8 33 6 33 5 18 -12 -10 -10 -17 -21
-17 -24 0 -5 35 -20 54 -22 15 -2 17 44 2 50 -8 3 -13 11 -10 17 6 17 -45 15
-65 -1z"/>
<path d="M2366 464 c-4 -10 -1 -14 6 -12 15 5 23 28 10 28 -5 0 -13 -7 -16
-16z"/>
<path d="M10100 450 c-8 -4 -41 -15 -73 -23 -38 -10 -71 -27 -98 -52 -44 -39
-77 -55 -115 -55 -14 0 -44 -14 -67 -30 -74 -54 -119 -81 -125 -76 -3 3 -5 22
-4 41 2 41 -13 39 -22 -2 -22 -97 -54 -170 -92 -210 l-41 -43 349 0 c245 0
347 3 343 11 -4 6 -9 8 -12 5 -7 -7 -37 24 -41 43 -2 9 -3 36 -2 60 1 41 0 43
-16 30 -16 -12 -17 -12 -11 4 3 9 2 17 -2 17 -10 0 -11 10 -11 134 1 50 3 92
5 95 11 10 16 -9 16 -63 1 -31 5 -56 10 -56 5 0 9 27 9 59 0 51 3 61 20 66 11
3 20 12 20 19 0 21 -23 36 -40 26z m27 -26 c-3 -3 -12 -4 -19 -1 -8 3 -5 6 6
6 11 1 17 -2 13 -5z"/>
<path d="M521 424 c0 -11 3 -14 6 -6 3 7 2 16 -1 19 -3 4 -6 -2 -5 -13z"/>
<path d="M1633 410 c-18 -16 -33 -37 -33 -45 0 -19 29 -19 54 0 11 8 27 15 36
15 30 0 42 22 23 42 -23 25 -43 22 -80 -12z"/>
<path d="M2343 405 c-8 -8 -9 -16 -3 -20 10 -6 50 15 50 27 0 13 -34 8 -47 -7z"/>
<path d="M11236 270 c-30 -63 -68 -150 -84 -193 -30 -77 -30 -77 -8 -77 18 0
28 15 58 88 20 48 40 98 44 112 3 14 19 46 35 73 30 50 35 72 19 97 -7 11 -23
-14 -64 -100z"/>
<path d="M2270 350 c0 -5 5 -10 10 -10 6 0 10 5 10 10 0 6 -4 10 -10 10 -5 0
-10 -4 -10 -10z"/>
<path d="M190 230 c0 -5 4 -10 9 -10 6 0 13 5 16 10 3 6 -1 10 -9 10 -9 0 -16
-4 -16 -10z"/>
<path d="M2590 198 c0 -27 4 -38 15 -38 19 0 19 30 0 56 -13 18 -14 17 -15
-18z"/>
<path d="M333 203 c-7 -2 -13 -11 -13 -19 0 -11 5 -11 25 -2 39 18 28 38 -12
21z"/>
<path d="M19 183 c-13 -14 -11 -16 12 -11 24 4 26 3 20 -21 -5 -16 -16 -27
-29 -29 -32 -5 -30 -61 3 -85 24 -17 24 -17 40 12 8 17 22 34 30 38 24 14 1
79 -34 98 -26 13 -30 13 -42 -2z"/>
<path d="M465 183 c-46 -11 -75 -63 -36 -63 11 0 21 -5 23 -11 2 -6 14 -2 28
10 19 16 22 23 12 29 -7 5 -10 16 -6 25 3 9 5 16 3 16 -2 -1 -13 -4 -24 -6z"/>
<path d="M522 128 c-18 -18 -14 -38 8 -38 15 0 20 7 20 25 0 27 -9 32 -28 13z"/>
<path d="M3857 104 c-27 -14 -47 -28 -44 -31 7 -6 93 32 101 46 11 17 -4 13
-57 -15z"/>
<path d="M10118 84 c-8 -8 3 -44 13 -44 12 0 11 17 -1 25 -6 4 -8 11 -5 16 7
10 2 12 -7 3z"/>
<path d="M367 73 c-16 -15 -5 -23 16 -12 18 9 20 9 10 -2 -18 -18 -16 -39 2
-39 8 0 15 -4 15 -10 0 -5 20 -10 45 -10 25 0 45 4 45 9 0 10 -45 41 -60 41
-6 0 -18 7 -26 15 -16 16 -36 19 -47 8z"/>
<path d="M3690 19 c-19 -10 -30 -19 -24 -19 13 0 74 30 74 36 0 8 -15 3 -50
-17z"/>
<path d="M300 20 c0 -9 39 -25 45 -18 2 2 -7 8 -21 15 -13 6 -24 7 -24 3z"/>
<path d="M90 10 c-11 -7 -7 -10 18 -10 20 0 31 4 27 10 -8 13 -26 13 -45 0z"/>
</g>
</svg>
